<mxfile host="app.diagrams.net" modified="2020-10-21T09:27:46.652Z" agent="5.0 (Windows NT 10.0; Win64; x64) AppleWebKit/537.36 (KHTML, like Gecko) Chrome/86.0.4240.111 Safari/537.36" etag="PaI0XypN70Km3onU10hQ" version="13.8.1" type="github">
  <diagram id="C5RBs43oDa-KdzZeNtuy" name="Page-1">
    <mxGraphModel dx="1673" dy="867" grid="1" gridSize="10" guides="1" tooltips="1" connect="1" arrows="1" fold="1" page="1" pageScale="1" pageWidth="1169" pageHeight="827" math="0" shadow="0">
      <root>
        <mxCell id="WIyWlLk6GJQsqaUBKTNV-0" />
        <mxCell id="WIyWlLk6GJQsqaUBKTNV-1" parent="WIyWlLk6GJQsqaUBKTNV-0" />
        <mxCell id="WIyWlLk6GJQsqaUBKTNV-2" value="" style="rounded=0;html=1;jettySize=auto;orthogonalLoop=1;fontSize=11;endArrow=classic;endFill=1;endSize=8;strokeWidth=1;shadow=0;labelBackgroundColor=none;edgeStyle=orthogonalEdgeStyle;entryX=0.5;entryY=0;entryDx=0;entryDy=0;" parent="WIyWlLk6GJQsqaUBKTNV-1" source="WIyWlLk6GJQsqaUBKTNV-3" target="CEkKTpPPNDytTsqzF80r-40" edge="1">
          <mxGeometry relative="1" as="geometry">
            <mxPoint x="339" y="710" as="targetPoint" />
          </mxGeometry>
        </mxCell>
        <mxCell id="WIyWlLk6GJQsqaUBKTNV-3" value="Weather Generator" style="shape=process;whiteSpace=wrap;html=1;backgroundOutline=1;shadow=0;fontFamily=Helvetica;fontSize=12;fontColor=#000000;align=center;strokeColor=#000000;strokeWidth=1;fillColor=#ffffff;rounded=1;" parent="WIyWlLk6GJQsqaUBKTNV-1" vertex="1">
          <mxGeometry x="389" y="170" width="120" height="50" as="geometry" />
        </mxCell>
        <mxCell id="CEkKTpPPNDytTsqzF80r-11" style="edgeStyle=orthogonalEdgeStyle;rounded=0;orthogonalLoop=1;jettySize=auto;html=1;" parent="WIyWlLk6GJQsqaUBKTNV-1" source="CEkKTpPPNDytTsqzF80r-10" target="WIyWlLk6GJQsqaUBKTNV-3" edge="1">
          <mxGeometry relative="1" as="geometry" />
        </mxCell>
        <mxCell id="CEkKTpPPNDytTsqzF80r-10" value="UKCP18" style="shape=parallelogram;perimeter=parallelogramPerimeter;whiteSpace=wrap;html=1;fixedSize=1;rounded=1;" parent="WIyWlLk6GJQsqaUBKTNV-1" vertex="1">
          <mxGeometry x="399" y="70" width="100" height="50" as="geometry" />
        </mxCell>
        <mxCell id="hF3Igr1HY41fA1B3tBO1-5" style="edgeStyle=orthogonalEdgeStyle;rounded=0;orthogonalLoop=1;jettySize=auto;html=1;" edge="1" parent="WIyWlLk6GJQsqaUBKTNV-1" source="CEkKTpPPNDytTsqzF80r-15" target="CEkKTpPPNDytTsqzF80r-17">
          <mxGeometry relative="1" as="geometry" />
        </mxCell>
        <mxCell id="CEkKTpPPNDytTsqzF80r-15" value="Population Projections" style="shape=parallelogram;perimeter=parallelogramPerimeter;whiteSpace=wrap;html=1;fixedSize=1;rounded=1;" parent="WIyWlLk6GJQsqaUBKTNV-1" vertex="1">
          <mxGeometry x="1055" y="70" width="100" height="50" as="geometry" />
        </mxCell>
        <mxCell id="hF3Igr1HY41fA1B3tBO1-30" style="edgeStyle=orthogonalEdgeStyle;rounded=0;orthogonalLoop=1;jettySize=auto;html=1;entryX=0.53;entryY=0;entryDx=0;entryDy=0;entryPerimeter=0;" edge="1" parent="WIyWlLk6GJQsqaUBKTNV-1" source="CEkKTpPPNDytTsqzF80r-17" target="CEkKTpPPNDytTsqzF80r-20">
          <mxGeometry relative="1" as="geometry" />
        </mxCell>
        <mxCell id="CEkKTpPPNDytTsqzF80r-17" value="Urban Development Model" style="shape=process;whiteSpace=wrap;html=1;backgroundOutline=1;shadow=0;fontFamily=Helvetica;fontSize=12;fontColor=#000000;align=center;strokeColor=#000000;strokeWidth=1;fillColor=#ffffff;rounded=1;" parent="WIyWlLk6GJQsqaUBKTNV-1" vertex="1">
          <mxGeometry x="945" y="172" width="120" height="50" as="geometry" />
        </mxCell>
        <mxCell id="hF3Igr1HY41fA1B3tBO1-16" style="edgeStyle=orthogonalEdgeStyle;rounded=0;orthogonalLoop=1;jettySize=auto;html=1;entryX=0.5;entryY=0;entryDx=0;entryDy=0;" edge="1" parent="WIyWlLk6GJQsqaUBKTNV-1" source="CEkKTpPPNDytTsqzF80r-18" target="CEkKTpPPNDytTsqzF80r-34">
          <mxGeometry relative="1" as="geometry">
            <Array as="points">
              <mxPoint x="230" y="350" />
              <mxPoint x="480" y="350" />
              <mxPoint x="480" y="420" />
              <mxPoint x="610" y="420" />
            </Array>
          </mxGeometry>
        </mxCell>
        <mxCell id="CEkKTpPPNDytTsqzF80r-18" value="Boundary Conditions" style="shape=parallelogram;perimeter=parallelogramPerimeter;whiteSpace=wrap;html=1;fixedSize=1;rounded=1;" parent="WIyWlLk6GJQsqaUBKTNV-1" vertex="1">
          <mxGeometry x="189" y="70" width="100" height="50" as="geometry" />
        </mxCell>
        <mxCell id="hF3Igr1HY41fA1B3tBO1-11" style="edgeStyle=orthogonalEdgeStyle;rounded=0;orthogonalLoop=1;jettySize=auto;html=1;entryX=0.5;entryY=0;entryDx=0;entryDy=0;" edge="1" parent="WIyWlLk6GJQsqaUBKTNV-1" source="CEkKTpPPNDytTsqzF80r-20" target="3T1dtDgbaSjGBwINf-Fj-5">
          <mxGeometry relative="1" as="geometry" />
        </mxCell>
        <mxCell id="CEkKTpPPNDytTsqzF80r-20" value="New Buildings" style="shape=parallelogram;perimeter=parallelogramPerimeter;whiteSpace=wrap;html=1;fixedSize=1;rounded=1;" parent="WIyWlLk6GJQsqaUBKTNV-1" vertex="1">
          <mxGeometry x="944" y="250" width="115" height="50" as="geometry" />
        </mxCell>
        <mxCell id="hF3Igr1HY41fA1B3tBO1-3" style="edgeStyle=orthogonalEdgeStyle;rounded=0;orthogonalLoop=1;jettySize=auto;html=1;entryX=0.5;entryY=0;entryDx=0;entryDy=0;" edge="1" parent="WIyWlLk6GJQsqaUBKTNV-1" source="CEkKTpPPNDytTsqzF80r-22" target="CEkKTpPPNDytTsqzF80r-17">
          <mxGeometry relative="1" as="geometry" />
        </mxCell>
        <mxCell id="hF3Igr1HY41fA1B3tBO1-8" style="edgeStyle=orthogonalEdgeStyle;rounded=0;orthogonalLoop=1;jettySize=auto;html=1;" edge="1" parent="WIyWlLk6GJQsqaUBKTNV-1" source="CEkKTpPPNDytTsqzF80r-22" target="3T1dtDgbaSjGBwINf-Fj-3">
          <mxGeometry relative="1" as="geometry">
            <mxPoint x="827.9999999999995" y="250" as="targetPoint" />
            <Array as="points">
              <mxPoint x="828" y="95" />
            </Array>
          </mxGeometry>
        </mxCell>
        <mxCell id="CEkKTpPPNDytTsqzF80r-22" value="Mastermap" style="shape=parallelogram;perimeter=parallelogramPerimeter;whiteSpace=wrap;html=1;fixedSize=1;rounded=1;" parent="WIyWlLk6GJQsqaUBKTNV-1" vertex="1">
          <mxGeometry x="855" y="70" width="100" height="50" as="geometry" />
        </mxCell>
        <mxCell id="3T1dtDgbaSjGBwINf-Fj-1" style="edgeStyle=orthogonalEdgeStyle;rounded=0;orthogonalLoop=1;jettySize=auto;html=1;entryX=0.5;entryY=0;entryDx=0;entryDy=0;" parent="WIyWlLk6GJQsqaUBKTNV-1" source="CEkKTpPPNDytTsqzF80r-26" target="CEkKTpPPNDytTsqzF80r-34" edge="1">
          <mxGeometry relative="1" as="geometry">
            <Array as="points">
              <mxPoint x="579" y="350" />
              <mxPoint x="480" y="350" />
              <mxPoint x="480" y="420" />
              <mxPoint x="610" y="420" />
            </Array>
          </mxGeometry>
        </mxCell>
        <mxCell id="CEkKTpPPNDytTsqzF80r-26" value="Friction&amp;nbsp;" style="shape=parallelogram;perimeter=parallelogramPerimeter;whiteSpace=wrap;html=1;fixedSize=1;rounded=1;" parent="WIyWlLk6GJQsqaUBKTNV-1" vertex="1">
          <mxGeometry x="529" y="173" width="100" height="50" as="geometry" />
        </mxCell>
        <mxCell id="Q-MxYJhCNWQ3zZ72rHfX-6" style="edgeStyle=orthogonalEdgeStyle;rounded=0;orthogonalLoop=1;jettySize=auto;html=1;entryX=0.5;entryY=0;entryDx=0;entryDy=0;" parent="WIyWlLk6GJQsqaUBKTNV-1" source="CEkKTpPPNDytTsqzF80r-28" target="CEkKTpPPNDytTsqzF80r-30" edge="1">
          <mxGeometry relative="1" as="geometry" />
        </mxCell>
        <mxCell id="Q-MxYJhCNWQ3zZ72rHfX-7" style="edgeStyle=orthogonalEdgeStyle;rounded=0;orthogonalLoop=1;jettySize=auto;html=1;entryX=0.5;entryY=0;entryDx=0;entryDy=0;" parent="WIyWlLk6GJQsqaUBKTNV-1" source="CEkKTpPPNDytTsqzF80r-28" target="CEkKTpPPNDytTsqzF80r-26" edge="1">
          <mxGeometry relative="1" as="geometry" />
        </mxCell>
        <mxCell id="CEkKTpPPNDytTsqzF80r-28" value="Land Use" style="shape=parallelogram;perimeter=parallelogramPerimeter;whiteSpace=wrap;html=1;fixedSize=1;rounded=1;" parent="WIyWlLk6GJQsqaUBKTNV-1" vertex="1">
          <mxGeometry x="609" y="70" width="100" height="50" as="geometry" />
        </mxCell>
        <mxCell id="Q-MxYJhCNWQ3zZ72rHfX-25" style="edgeStyle=orthogonalEdgeStyle;rounded=0;orthogonalLoop=1;jettySize=auto;html=1;entryX=0.5;entryY=0;entryDx=0;entryDy=0;" parent="WIyWlLk6GJQsqaUBKTNV-1" source="CEkKTpPPNDytTsqzF80r-34" target="Q-MxYJhCNWQ3zZ72rHfX-24" edge="1">
          <mxGeometry relative="1" as="geometry" />
        </mxCell>
        <mxCell id="CEkKTpPPNDytTsqzF80r-34" value="City Catchment Analysis Tool" style="shape=process;whiteSpace=wrap;html=1;backgroundOutline=1;shadow=0;fontFamily=Helvetica;fontSize=12;fontColor=#000000;align=center;strokeColor=#000000;strokeWidth=1;fillColor=#ffffff;rounded=1;" parent="WIyWlLk6GJQsqaUBKTNV-1" vertex="1">
          <mxGeometry x="550" y="480" width="120" height="58" as="geometry" />
        </mxCell>
        <mxCell id="hF3Igr1HY41fA1B3tBO1-2" style="edgeStyle=orthogonalEdgeStyle;rounded=0;orthogonalLoop=1;jettySize=auto;html=1;entryX=0.5;entryY=0;entryDx=0;entryDy=0;" edge="1" parent="WIyWlLk6GJQsqaUBKTNV-1" source="CEkKTpPPNDytTsqzF80r-40" target="CEkKTpPPNDytTsqzF80r-34">
          <mxGeometry relative="1" as="geometry">
            <Array as="points">
              <mxPoint x="449" y="350" />
              <mxPoint x="480" y="350" />
              <mxPoint x="480" y="420" />
              <mxPoint x="610" y="420" />
            </Array>
          </mxGeometry>
        </mxCell>
        <mxCell id="CEkKTpPPNDytTsqzF80r-40" value="Rainfall" style="shape=parallelogram;perimeter=parallelogramPerimeter;whiteSpace=wrap;html=1;fixedSize=1;rounded=1;" parent="WIyWlLk6GJQsqaUBKTNV-1" vertex="1">
          <mxGeometry x="399" y="262.5" width="100" height="45" as="geometry" />
        </mxCell>
        <mxCell id="CEkKTpPPNDytTsqzF80r-42" value="Dataset" style="shape=parallelogram;perimeter=parallelogramPerimeter;whiteSpace=wrap;html=1;fixedSize=1;rounded=1;" parent="WIyWlLk6GJQsqaUBKTNV-1" vertex="1">
          <mxGeometry x="140" y="740" width="90" height="40" as="geometry" />
        </mxCell>
        <mxCell id="CEkKTpPPNDytTsqzF80r-43" value="OpenCLIM Model" style="rounded=1;whiteSpace=wrap;html=1;fontSize=12;glass=0;strokeWidth=1;shadow=0;" parent="WIyWlLk6GJQsqaUBKTNV-1" vertex="1">
          <mxGeometry x="240" y="740" width="85" height="40" as="geometry" />
        </mxCell>
        <mxCell id="3T1dtDgbaSjGBwINf-Fj-0" style="edgeStyle=orthogonalEdgeStyle;rounded=0;orthogonalLoop=1;jettySize=auto;html=1;entryX=0.5;entryY=0;entryDx=0;entryDy=0;" parent="WIyWlLk6GJQsqaUBKTNV-1" source="CEkKTpPPNDytTsqzF80r-30" target="CEkKTpPPNDytTsqzF80r-34" edge="1">
          <mxGeometry relative="1" as="geometry">
            <Array as="points">
              <mxPoint x="712" y="350" />
              <mxPoint x="480" y="350" />
              <mxPoint x="480" y="420" />
              <mxPoint x="610" y="420" />
            </Array>
          </mxGeometry>
        </mxCell>
        <mxCell id="CEkKTpPPNDytTsqzF80r-30" value="Infiltration" style="shape=parallelogram;perimeter=parallelogramPerimeter;whiteSpace=wrap;html=1;fixedSize=1;rounded=1;" parent="WIyWlLk6GJQsqaUBKTNV-1" vertex="1">
          <mxGeometry x="662" y="173" width="100" height="50" as="geometry" />
        </mxCell>
        <mxCell id="hF3Igr1HY41fA1B3tBO1-17" style="edgeStyle=orthogonalEdgeStyle;rounded=0;orthogonalLoop=1;jettySize=auto;html=1;" edge="1" parent="WIyWlLk6GJQsqaUBKTNV-1" source="CEkKTpPPNDytTsqzF80r-24" target="CEkKTpPPNDytTsqzF80r-34">
          <mxGeometry relative="1" as="geometry">
            <Array as="points">
              <mxPoint x="328" y="350" />
              <mxPoint x="480" y="350" />
              <mxPoint x="480" y="420" />
              <mxPoint x="610" y="420" />
            </Array>
          </mxGeometry>
        </mxCell>
        <mxCell id="CEkKTpPPNDytTsqzF80r-24" value="Topography" style="shape=parallelogram;perimeter=parallelogramPerimeter;whiteSpace=wrap;html=1;fixedSize=1;rounded=1;" parent="WIyWlLk6GJQsqaUBKTNV-1" vertex="1">
          <mxGeometry x="289" y="70" width="100" height="50" as="geometry" />
        </mxCell>
        <mxCell id="hF3Igr1HY41fA1B3tBO1-19" style="edgeStyle=orthogonalEdgeStyle;rounded=0;orthogonalLoop=1;jettySize=auto;html=1;entryX=0.5;entryY=0;entryDx=0;entryDy=0;" edge="1" parent="WIyWlLk6GJQsqaUBKTNV-1" source="Q-MxYJhCNWQ3zZ72rHfX-24" target="Q-MxYJhCNWQ3zZ72rHfX-27">
          <mxGeometry relative="1" as="geometry" />
        </mxCell>
        <mxCell id="Q-MxYJhCNWQ3zZ72rHfX-24" value="Water Depth &amp;amp; Velocity" style="shape=parallelogram;perimeter=parallelogramPerimeter;whiteSpace=wrap;html=1;fixedSize=1;rounded=1;" parent="WIyWlLk6GJQsqaUBKTNV-1" vertex="1">
          <mxGeometry x="550" y="580" width="120" height="45" as="geometry" />
        </mxCell>
        <mxCell id="Q-MxYJhCNWQ3zZ72rHfX-31" style="edgeStyle=orthogonalEdgeStyle;rounded=0;orthogonalLoop=1;jettySize=auto;html=1;entryX=0.5;entryY=0;entryDx=0;entryDy=0;" parent="WIyWlLk6GJQsqaUBKTNV-1" source="Q-MxYJhCNWQ3zZ72rHfX-27" target="Q-MxYJhCNWQ3zZ72rHfX-30" edge="1">
          <mxGeometry relative="1" as="geometry" />
        </mxCell>
        <mxCell id="Q-MxYJhCNWQ3zZ72rHfX-27" value="Impact Model" style="rounded=1;whiteSpace=wrap;html=1;" parent="WIyWlLk6GJQsqaUBKTNV-1" vertex="1">
          <mxGeometry x="550" y="670" width="120" height="45" as="geometry" />
        </mxCell>
        <mxCell id="Q-MxYJhCNWQ3zZ72rHfX-30" value="Flood Damages" style="shape=parallelogram;perimeter=parallelogramPerimeter;whiteSpace=wrap;html=1;fixedSize=1;rounded=1;" parent="WIyWlLk6GJQsqaUBKTNV-1" vertex="1">
          <mxGeometry x="550" y="760" width="120" height="45" as="geometry" />
        </mxCell>
        <mxCell id="hF3Igr1HY41fA1B3tBO1-9" style="edgeStyle=orthogonalEdgeStyle;rounded=0;orthogonalLoop=1;jettySize=auto;html=1;" edge="1" parent="WIyWlLk6GJQsqaUBKTNV-1" source="3T1dtDgbaSjGBwINf-Fj-3" target="3T1dtDgbaSjGBwINf-Fj-5">
          <mxGeometry relative="1" as="geometry" />
        </mxCell>
        <mxCell id="3T1dtDgbaSjGBwINf-Fj-3" value="Buildings" style="shape=parallelogram;perimeter=parallelogramPerimeter;whiteSpace=wrap;html=1;fixedSize=1;rounded=1;" parent="WIyWlLk6GJQsqaUBKTNV-1" vertex="1">
          <mxGeometry x="844" y="250" width="100" height="50" as="geometry" />
        </mxCell>
        <mxCell id="hF3Igr1HY41fA1B3tBO1-18" style="edgeStyle=orthogonalEdgeStyle;rounded=0;orthogonalLoop=1;jettySize=auto;html=1;entryX=0.5;entryY=0;entryDx=0;entryDy=0;" edge="1" parent="WIyWlLk6GJQsqaUBKTNV-1" source="3T1dtDgbaSjGBwINf-Fj-5" target="CEkKTpPPNDytTsqzF80r-34">
          <mxGeometry relative="1" as="geometry">
            <Array as="points">
              <mxPoint x="948" y="420" />
              <mxPoint x="610" y="420" />
            </Array>
          </mxGeometry>
        </mxCell>
        <mxCell id="hF3Igr1HY41fA1B3tBO1-21" style="edgeStyle=orthogonalEdgeStyle;rounded=0;orthogonalLoop=1;jettySize=auto;html=1;entryX=0.5;entryY=0;entryDx=0;entryDy=0;" edge="1" parent="WIyWlLk6GJQsqaUBKTNV-1" source="3T1dtDgbaSjGBwINf-Fj-5" target="Q-MxYJhCNWQ3zZ72rHfX-27">
          <mxGeometry relative="1" as="geometry">
            <Array as="points">
              <mxPoint x="948" y="640" />
              <mxPoint x="610" y="640" />
            </Array>
          </mxGeometry>
        </mxCell>
        <mxCell id="3T1dtDgbaSjGBwINf-Fj-5" value="Merge Existing and New Buildings" style="rounded=1;whiteSpace=wrap;html=1;fontSize=12;glass=0;strokeWidth=1;shadow=0;" parent="WIyWlLk6GJQsqaUBKTNV-1" vertex="1">
          <mxGeometry x="888" y="340" width="120" height="50" as="geometry" />
        </mxCell>
        <mxCell id="hF3Igr1HY41fA1B3tBO1-4" style="edgeStyle=orthogonalEdgeStyle;rounded=0;orthogonalLoop=1;jettySize=auto;html=1;exitX=0.5;exitY=1;exitDx=0;exitDy=0;" edge="1" parent="WIyWlLk6GJQsqaUBKTNV-1" source="3T1dtDgbaSjGBwINf-Fj-11" target="CEkKTpPPNDytTsqzF80r-17">
          <mxGeometry relative="1" as="geometry" />
        </mxCell>
        <mxCell id="3T1dtDgbaSjGBwINf-Fj-11" value="&lt;div&gt;Attractor/&lt;/div&gt;&lt;div&gt;Constraints&lt;/div&gt;" style="shape=parallelogram;perimeter=parallelogramPerimeter;whiteSpace=wrap;html=1;fixedSize=1;rounded=1;" parent="WIyWlLk6GJQsqaUBKTNV-1" vertex="1">
          <mxGeometry x="955" y="70" width="100" height="50" as="geometry" />
        </mxCell>
        <mxCell id="hF3Igr1HY41fA1B3tBO1-20" style="edgeStyle=orthogonalEdgeStyle;rounded=0;orthogonalLoop=1;jettySize=auto;html=1;" edge="1" parent="WIyWlLk6GJQsqaUBKTNV-1" source="hF3Igr1HY41fA1B3tBO1-0" target="CEkKTpPPNDytTsqzF80r-34">
          <mxGeometry relative="1" as="geometry">
            <Array as="points">
              <mxPoint x="105" y="350" />
              <mxPoint x="480" y="350" />
              <mxPoint x="480" y="420" />
              <mxPoint x="610" y="420" />
            </Array>
          </mxGeometry>
        </mxCell>
        <mxCell id="hF3Igr1HY41fA1B3tBO1-0" value="Adaption Measures&lt;br&gt;e.g. Green Rooves" style="shape=parallelogram;perimeter=parallelogramPerimeter;whiteSpace=wrap;html=1;fixedSize=1;rounded=1;" vertex="1" parent="WIyWlLk6GJQsqaUBKTNV-1">
          <mxGeometry x="30" y="70" width="150" height="50" as="geometry" />
        </mxCell>
        <mxCell id="hF3Igr1HY41fA1B3tBO1-22" value="Existing&lt;br&gt;Model" style="shape=process;whiteSpace=wrap;html=1;backgroundOutline=1;shadow=0;fontFamily=Helvetica;fontSize=12;fontColor=#000000;align=center;strokeColor=#000000;strokeWidth=1;fillColor=#ffffff;rounded=1;" vertex="1" parent="WIyWlLk6GJQsqaUBKTNV-1">
          <mxGeometry x="340" y="742" width="90" height="39" as="geometry" />
        </mxCell>
        <mxCell id="hF3Igr1HY41fA1B3tBO1-26" style="edgeStyle=orthogonalEdgeStyle;rounded=0;orthogonalLoop=1;jettySize=auto;html=1;" edge="1" parent="WIyWlLk6GJQsqaUBKTNV-1" source="hF3Igr1HY41fA1B3tBO1-24" target="Q-MxYJhCNWQ3zZ72rHfX-27">
          <mxGeometry relative="1" as="geometry">
            <Array as="points">
              <mxPoint x="415" y="640" />
              <mxPoint x="610" y="640" />
            </Array>
          </mxGeometry>
        </mxCell>
        <mxCell id="hF3Igr1HY41fA1B3tBO1-24" value="Depth-Damage&lt;br&gt;Functions" style="shape=parallelogram;perimeter=parallelogramPerimeter;whiteSpace=wrap;html=1;fixedSize=1;rounded=1;" vertex="1" parent="WIyWlLk6GJQsqaUBKTNV-1">
          <mxGeometry x="350" y="580" width="130" height="50" as="geometry" />
        </mxCell>
      </root>
    </mxGraphModel>
  </diagram>
</mxfile>
